# xmcd CD database file
#
# Track frame offsets:
#	150
#	17262
#	34514
#	52918
#
# Disc length: 942 seconds
#
# Revision: 1
# Processed by: cddbd v1.5.1PL0 Copyright (c) Steve Scherf et al.
# Submitted via: CDex 1.50beta8
#
DISCID=1d03ac04
DTITLE=GLAY - 天使のわけまえ／ピーク果てしなく ソウル限りなく（関東版）
DYEAR=1900
DGENRE=Techno
TTITLE0=天使のわけまえ
TTITLE1=ピーク果てしなく ソウル限りなく
TTITLE2=BLAST（ライブ 東京ベイNKホール〜2004．3．15）
TTITLE3=ピーク果てしなく ソウル限りなく（ライブ 東京ベイNKホール〜2004．3．15）
EXTD=
EXTT0=
EXTT1=
EXTT2=
EXTT3=
PLAYORDER=
